<svg xmlns="http://www.w3.org/2000/svg" viewBox="0 0 1200 800" role="img" aria-labelledby="title desc">
  <title id="title">Esperança Viva: Luz no Caminho Longo (Salmos 17:12) - Salmos 17:12</title>
  <desc id="desc">Arte devocional única sobre Esperança, Esperança viva, baseada em Salmos 17:12.</desc>
  <defs>
    <linearGradient id="bg" x1="0" y1="0" x2="1" y2="1">
      <stop offset="0" stop-color="#c98635"/>
      <stop offset="1" stop-color="#f5dfae"/>
    </linearGradient>
    <radialGradient id="glow" cx="50%" cy="40%" r="70%">
      <stop offset="0" stop-color="#fff8dc" stop-opacity=".45"/>
      <stop offset="1" stop-color="#ffffff" stop-opacity="0"/>
    </radialGradient>
    <filter id="soft" x="-20%" y="-20%" width="140%" height="140%">
      <feDropShadow dx="0" dy="18" stdDeviation="22" flood-color="#1f231d" flood-opacity=".22"/>
    </filter>
  </defs>
  <rect width="1200" height="800" fill="url(#bg)"/>
  <rect width="1200" height="800" fill="url(#glow)"/>
  <g opacity=".16" stroke="#fff" stroke-width="2">
    <path d="M-20 120 C 150 30, 330 210, 590 120 S 990 40, 1320 150" fill="none"/>
    <path d="M100 700 C 230 600, 390 740, 650 650 S 1030 590, 1280 710" fill="none"/>
  </g>
  <circle cx="280" cy="120" r="180" fill="#fff" opacity=".12"/>
  <circle cx="1010" cy="610" r="230" fill="#2b312a" opacity=".10"/>
  <g transform="rotate(-3 620 470)" color="#ffffff" filter="url(#soft)"><path d="M260 665h720v46H260v-46zm95-70c42-110 145-187 265-187s223 77 265 187H355zm265-286v-96h42v96h-42zm-221 72l-68-68 30-30 68 68-30 30zm442 0l-30-30 68-68 30 30-68 68z" fill="currentColor" opacity=".86"/></g>
  <rect x="76" y="70" width="1048" height="660" rx="44" fill="#fff" opacity=".13" stroke="#fff" stroke-opacity=".26"/>
  <text x="96" y="130" fill="#fff" font-family="Georgia, 'Times New Roman', serif" font-size="28" font-weight="700" letter-spacing="3">DEVOCIONAL DIÁRIO 121</text>
  <text x="96" y="188" fill="#fff" font-family="Arial, sans-serif" font-size="34" font-weight="700">Salmos 17:12</text>
  <text x="96" y="590" fill="#fff" font-family="Georgia, 'Times New Roman', serif" font-size="58" font-weight="700">Esperança Viva: Luz no Caminho Longo (Salmos 17:12)</text>
  <text x="96" y="646" fill="#fff" font-family="Arial, sans-serif" font-size="26" opacity=".92">Esperança • Esperança viva</text>
  <text x="96" y="696" fill="#fff" font-family="Arial, sans-serif" font-size="22" opacity=".82">Pr. Marco Lima</text>
</svg>