<svg xmlns="http://www.w3.org/2000/svg" viewBox="0 0 1200 800" role="img" aria-labelledby="title desc">
  <title id="title">Oração no Secreto: Oração que Descansa (Salmos 31:23) - Salmos 31:23</title>
  <desc id="desc">Arte devocional única sobre Oração, Comunhão com Deus, baseada em Salmos 31:23.</desc>
  <defs>
    <linearGradient id="bg" x1="0" y1="0" x2="1" y2="1">
      <stop offset="0" stop-color="#5d6f8f"/>
      <stop offset="1" stop-color="#ddd7c7"/>
    </linearGradient>
    <radialGradient id="glow" cx="50%" cy="40%" r="70%">
      <stop offset="0" stop-color="#fff8dc" stop-opacity=".45"/>
      <stop offset="1" stop-color="#ffffff" stop-opacity="0"/>
    </radialGradient>
    <filter id="soft" x="-20%" y="-20%" width="140%" height="140%">
      <feDropShadow dx="0" dy="18" stdDeviation="22" flood-color="#1f231d" flood-opacity=".22"/>
    </filter>
  </defs>
  <rect width="1200" height="800" fill="url(#bg)"/>
  <rect width="1200" height="800" fill="url(#glow)"/>
  <g opacity=".16" stroke="#fff" stroke-width="2">
    <path d="M-171 120 C 150 30, 330 210, 590 120 S 990 40, 1320 150" fill="none"/>
    <path d="M-51 700 C 230 600, 390 740, 650 650 S 1030 590, 1280 710" fill="none"/>
  </g>
  <circle cx="177" cy="193" r="180" fill="#fff" opacity=".12"/>
  <circle cx="1010" cy="610" r="230" fill="#2b312a" opacity=".10"/>
  <g transform="rotate(-6 620 470)" color="#ffffff" filter="url(#soft)"><path d="M412 534c115-10 210-66 284-170-25 108-79 190-160 246 58 11 109 2 156-26-64 74-147 106-250 91-72-11-132-44-180-100 50 21 100 8 150-41zm120-66c-74-45-127-98-159-160 88 31 167 78 239 141-25 8-52 14-80 19z" fill="currentColor" opacity=".88"/></g>
  <rect x="76" y="70" width="1048" height="660" rx="44" fill="#fff" opacity=".13" stroke="#fff" stroke-opacity=".26"/>
  <text x="96" y="130" fill="#fff" font-family="Georgia, 'Times New Roman', serif" font-size="28" font-weight="700" letter-spacing="3">DEVOCIONAL DIÁRIO 222</text>
  <text x="96" y="188" fill="#fff" font-family="Arial, sans-serif" font-size="34" font-weight="700">Salmos 31:23</text>
  <text x="96" y="590" fill="#fff" font-family="Georgia, 'Times New Roman', serif" font-size="58" font-weight="700">Oração no Secreto: Oração que Descansa (Salmos 31:23)</text>
  <text x="96" y="646" fill="#fff" font-family="Arial, sans-serif" font-size="26" opacity=".92">Oração • Comunhão com Deus</text>
  <text x="96" y="696" fill="#fff" font-family="Arial, sans-serif" font-size="22" opacity=".82">Pr. Marco Lima</text>
</svg>